<svg id="C-2_Image" data-name="C-2 Image" xmlns="http://www.w3.org/2000/svg" viewBox="0 0 197.93 255.42"><title>C-3</title><path d="M158.91,239v26.86H115.24V236.75c-4.62-1.73-9.15-3.18-13.47-5.09-22.29-9.83-39-25.7-50.25-47.25a104.27,104.27,0,0,1-10.7-34c-1.84-12.9-.39-25.52,3.33-37.89Q56.55,71.19,94.41,50.26a95.14,95.14,0,0,1,19.58-8l1.19-.36V10.41h43.66V39.56a105,105,0,0,1,29.52,8.57L170,91.52a45.91,45.91,0,0,0-11.09-5.46V192.29c0.37-.1.69-0.16,1-0.28a42.07,42.07,0,0,0,22.65-18.82,1.92,1.92,0,0,1,2-1.09q22.86,0,45.72,0h7.58C225.35,210.77,198.57,232.38,158.91,239ZM115.16,90.32l-0.34-.3c-2.56,2-5.29,3.85-7.66,6.07C95.46,107,90.32,121,89.08,136.53c-0.67,8.43,1.22,16.53,4.07,24.4,4,11.15,10.79,20.23,20.87,26.67,0.34,0.22.7,0.4,1.14,0.65V90.32Z" transform="translate(-40.02 -10.41)" style="fill:#8200fe"/><path d="M212.45,117.66a25.37,25.37,0,1,1,25.49-24.91A25.41,25.41,0,0,1,212.45,117.66Z" transform="translate(-40.02 -10.41)" style="fill:#8201fe"/></svg>