<svg id="Layer_1" data-name="Layer 1" xmlns="http://www.w3.org/2000/svg" viewBox="0 0 818.87 1064.43"><title>jetlify-logo-2</title><g><path d="M718.25,388.64c-17.25-13.13-35.52-23.37-56-30V802.4c11.22-5.31,22-9.74,32.07-15.3a169,169,0,0,0,66.89-66.27c1.47-2.6,3-3.75,6.13-3.75q107,0.15,214,.08h4.2c-0.63,6.83.07,13.77-2,19.74-41.88,119.44-123.21,199.16-242.82,240-25.42,8.68-51.59,14.32-78.59,18.22v112.6H480.13V985.84c-13.35-4.59-26.6-8.43-39.3-13.63C304,916.16,217.38,815.94,179.1,673.57a356,356,0,0,1-12.46-92.8A381.39,381.39,0,0,1,183.16,471C219.48,350.19,293.5,260.45,406.05,202.93c23.46-12,48.14-21,73.93-28.16V43.27H661.75V164.82c53.31,7.73,103.62,23.31,150.73,49.88ZM479.76,376.29l-1.39-1.19c-10.69,8.4-22,16.07-31.95,25.32C397.7,445.94,376.37,504,371.17,569c-2.25,28.16,2.89,55.63,10.77,82.72,13.05,44.89,35.34,83.86,71.49,114.13,8.07,6.76,16.91,12.61,26.33,19.56V376.29Z" transform="translate(-166.64 -43.27)" style="fill:#8200fe"/><path d="M878.4,493.24c-57.64,0-104.71-46.9-105.58-103.46C771.89,330,821.15,280.5,881.15,281.88c57.65,1.33,104.3,49.94,103.3,107.9C983.46,446.73,936.63,493.24,878.4,493.24Z" transform="translate(-166.64 -43.27)" style="fill:#8201fe"/></g></svg>